:SAMPLES-PER-SECOND 30
:FULLY-SPECIFIED
:DEGREES
113
root  -35.0229 40.8527 -10.312 -12.3204 -81.8576 7.0899
RightUpLeg  -4.45929 -9.96229 -2.14451
RightLeg  10.7441 -10.278 5.35465
RightFoot  -0.366655 0.797857 -8.30811
RightToes  2.91037e-010 0 -3.6325e-017
Spine  8.19413 3.19159 15.8767
Spine1  12.0137 8.18285 -12.7651
HEad  -5.79033 -9.94178 -2.41961
LeftShoulder1  8.49946 -12.744 -45.6063
LeftArm  -10.156 23.5878 -27.2329
LeftForeArm  27.9454 -11.3123 -4.85192
LeftHand  -0.244104 0.0205437 5.32207
RightShoulder  5.09637 9.70118 32.6555
RightArm  -13.3506 31.0638 32.5574
RightForeArm  -0.841555 69.6902 34.2072
RightHand  -3.03885 8.6428 -25.0774
LeftUpLeg  -8.28474 2.98197 3.01336
LeftLeg  4.02453 -0.81511 -1.84917
LeftFoot  6.5127 0.828178 -5.5355
LeftToes  1.46425e-010 1.43544e-010 6.23391e-011
114
root  -35.5499 40.9124 -10.3056 -10.8399 -82.5985 5.64026
RightUpLeg  -3.41475 -9.67916 -1.77739
RightLeg  10.1725 -9.83792 5.54261
RightFoot  -0.779935 0.770605 -8.37099
RightToes  2.91037e-010 0 -3.6325e-017
Spine  7.56326 3.48609 15.2172
Spine1  11.9512 8.27029 -12.3404
HEad  -4.07679 -9.54889 -2.94508
LeftShoulder1  8.69718 -12.9489 -46.1037
LeftArm  -10.7633 24.4629 -27.1054
LeftForeArm  27.0202 -11.2165 -4.68511
LeftHand  -0.244104 0.0205437 5.32207
RightShoulder  5.25124 10.0303 32.8593
RightArm  -6.93024 34.2234 29.4858
RightForeArm  -17.2436 62.2596 23.9299
RightHand  -3.13989 9.17406 -24.9699
LeftUpLeg  -7.31992 2.63998 3.23104
LeftLeg  3.12513 -0.911034 -1.77999
LeftFoot  8.18668 0.462386 -2.94816
LeftToes  1.46425e-010 1.43544e-010 6.23391e-011
115
root  -36.0339 40.9818 -10.2823 -11.4598 -83.2691 6.29576
RightUpLeg  -2.46324 -9.46132 -1.68473
RightLeg  9.69646 -9.30663 5.52983
RightFoot  -1.18876 0.726329 -8.24473
RightToes  2.91037e-010 0 -3.6325e-017
Spine  7.03476 3.78964 14.5577
Spine1  11.8521 8.546 -12.4847
HEad  -2.71276 -9.37837 -2.84861
LeftShoulder1  8.82588 -13.1502 -46.2249
LeftArm  -11.0376 24.3872 -26.8756
LeftForeArm  26.5515 -10.8395 -4.64772
LeftHand  -0.244104 0.0205437 5.32207
RightShoulder  5.2466 10.2611 32.1734
RightArm  1.67694 36.319 27.9183
RightForeArm  -32.9547 55.1827 18.4402
RightHand  -3.18467 9.24034 -25.2061
LeftUpLeg  -6.47254 2.32918 3.1094
LeftLeg  3.30649 0.327985 -1.34362
LeftFoot  7.5195 0.2032 -1.50089
LeftToes  1.46425e-010 1.43544e-010 6.23391e-011
116
root  -36.4877 41.0506 -10.2667 -13.9575 -83.6403 9.01936
RightUpLeg  -1.77555 -9.32342 -1.79883
RightLeg  9.30578 -8.94804 5.34886
RightFoot  -1.63552 0.674671 -8.0558
RightToes  2.91037e-010 0 -3.6325e-017
Spine  6.73788 4.14741 14.1645
Spine1  11.6215 9.1546 -13.5166
HEad  -2.4742 -9.63274 -1.66533
LeftShoulder1  8.85309 -13.3003 -45.9451
LeftArm  -10.9508 23.2359 -26.2225
LeftForeArm  26.864 -10.7167 -4.66824
LeftHand  -0.244104 0.0205437 5.32207
RightShoulder  5.30252 10.5866 31.6845
RightArm  6.29141 34.9468 27.0011
RightForeArm  -40.5642 54.8462 18.6852
RightHand  -2.94654 8.13179 -25.2225
LeftUpLeg  -5.82718 2.0573 2.90255
LeftLeg  3.2892 1.28034 -1.10142
LeftFoot  6.53189 0.20532 -1.5606
LeftToes  1.46425e-010 1.43544e-010 6.23391e-011
117
root  -36.9194 41.1042 -10.2601 -15.7713 -83.5329 11.3
RightUpLeg  -1.39764 -9.2671 -1.95072
RightLeg  8.98088 -8.98717 5.18104
RightFoot  -2.08416 0.623947 -7.8614
RightToes  2.91037e-010 0 -3.6325e-017
Spine  6.56675 4.40875 13.8349
Spine1  11.226 9.67746 -14.652
HEad  -3.77996 -9.9545 0.04063
LeftShoulder1  8.8933 -13.447 -45.7478
LeftArm  -10.5593 21.853 -25.1726
LeftForeArm  27.1552 -11.7875 -4.61277
LeftHand  -0.244104 0.0205437 5.32207
RightShoulder  5.48111 10.8767 32.1693
RightArm  3.36926 30.8366 26.7273
RightForeArm  -33.4629 60.686 23.3524
RightHand  -2.60035 6.90475 -24.485
LeftUpLeg  -5.56677 2.07892 2.79216
LeftLeg  3.08934 1.04896 -1.26673
LeftFoot  6.26184 0.269852 -1.98849
LeftToes  1.46425e-010 1.43544e-010 6.23391e-011
118
root  -37.3249 41.1437 -10.2347 -15.48 -83.2471 11.5846
RightUpLeg  -1.175 -9.1618 -1.97153
RightLeg  8.63387 -9.29609 5.08071
RightFoot  -2.4578 0.582275 -7.69169
RightToes  2.91037e-010 0 -3.6325e-017
Spine  6.29413 4.37251 13.2709
Spine1  10.7458 9.63033 -15.0542
HEad  -5.89514 -9.70475 1.00145
LeftShoulder1  9.00173 -13.5342 -46.0795
LeftArm  -9.98054 21.1729 -24.0191
LeftForeArm  26.2511 -14.3857 -4.31345
LeftHand  -0.244104 0.0205437 5.32207
RightShoulder  5.72488 10.9508 33.6592
RightArm  -2.47492 27.0517 27.8168
RightForeArm  -15.4347 68.0684 32.213
RightHand  -2.19649 5.72826 -22.944
LeftUpLeg  -5.5414 2.2646 2.80312
LeftLeg  3.02559 0.527167 -1.51291
LeftFoot  6.04429 0.278265 -2.06037
LeftToes  1.46425e-010 1.43544e-010 6.23391e-011
119
root  -37.6947 41.1849 -10.1796 -14.6934 -83.2441 11.2983
RightUpLeg  -0.887712 -8.8902 -1.84688
RightLeg  8.1418 -9.53279 4.95156
RightFoot  -2.6819 0.556728 -7.57523
RightToes  2.91037e-010 0 -3.6325e-017
Spine  5.8439 4.10949 12.3023
Spine1  10.4052 9.06564 -14.5371
HEad  -7.64937 -8.76892 0.734519
LeftShoulder1  9.10895 -13.475 -46.811
LeftArm  -9.95584 21.0723 -23.2082
LeftForeArm  24.5338 -17.6213 -3.83467
LeftHand  -0.244104 0.0205437 5.32207
RightShoulder  6.06428 11.0407 35.7134
RightArm  -6.81724 25.3883 29.7417
RightForeArm  2.80867 73.026 43.0493
RightHand  -2.07664 5.32474 -22.5087
LeftUpLeg  -5.34794 2.35742 2.87678
LeftLeg  2.83651 0.592047 -1.62759
LeftFoot  5.52628 0.265705 -2.01908
LeftToes  1.46425e-010 1.43544e-010 6.23391e-011
120
root  -38.0205 41.2346 -10.1123 -15.0681 -83.6449 11.9693
RightUpLeg  -0.431014 -8.55252 -1.72582
RightLeg  7.54364 -9.44872 4.78585
RightFoot  -2.74975 0.544185 -7.47503
RightToes  2.91037e-010 0 -3.6325e-017
Spine  5.36883 3.91251 10.999
Spine1  10.3991 8.44701 -13.4125
HEad  -8.61921 -7.70543 0.0179206
LeftShoulder1  9.17411 -13.3862 -47.4053
LeftArm  -11.0226 20.6772 -23.113
LeftForeArm  23.4044 -20.1759 -3.5883
LeftHand  -0.244104 0.0205437 5.32207
RightShoulder  6.52134 11.4304 37.6322
RightArm  -9.1392 25.3818 31.2439
RightForeArm  10.694 74.5083 48.1903
RightHand  -2.45083 6.45281 -23.9782
LeftUpLeg  -4.77512 2.41165 2.96853
LeftLeg  2.24552 0.999771 -1.75072
LeftFoot  5.25081 0.260501 -2.00575
LeftToes  1.46425e-010 1.43544e-010 6.23391e-011
121
root  -38.2986 41.2825 -10.038 -16.761 -84.2741 13.7278
RightUpLeg  0.156573 -8.338 -1.73811
RightLeg  7.01418 -9.00171 4.68695
RightFoot  -2.74214 0.533688 -7.32884
RightToes  2.91037e-010 0 -3.6325e-017
Spine  5.0252 3.917 9.74305
Spine1  10.6444 8.10422 -12.2805
HEad  -9.09995 -7.05526 -0.171364
LeftShoulder1  9.21905 -13.472 -47.3976
LeftArm  -12.0361 19.6075 -23.6795
LeftForeArm  22.9021 -21.6186 -3.61632
LeftHand  -0.244104 0.0205437 5.32207
RightShoulder  6.92233 11.9572 38.6983
RightArm  -9.78548 26.3588 31.9081
RightForeArm  4.51009 72.644 41.7439
RightHand  -2.8728 7.78703 -25.2418
LeftUpLeg  -3.96227 2.61738 3.06402
LeftLeg  1.56533 1.33496 -2.00054
LeftFoot  5.31683 0.230374 -1.79465
LeftToes  1.46425e-010 1.43544e-010 6.23391e-011
122
root  -38.5363 41.3193 -9.93764 -19.2866 -84.9986 16.2047
RightUpLeg  0.73917 -8.24614 -1.85491
RightLeg  6.62607 -8.32668 4.64373
RightFoot  -2.74636 0.518874 -7.13668
RightToes  2.91037e-010 0 -3.6325e-017
Spine  4.78157 4.00132 9.00501
Spine1  10.8761 8.05534 -11.7967
HEad  -9.51791 -6.86193 0.399762
LeftShoulder1  9.24679 -13.7497 -46.7628
LeftArm  -12.0027 18.1807 -24.352
LeftForeArm  22.7955 -22.5015 -3.70106
LeftHand  -0.244104 0.0205437 5.32207
RightShoulder  7.07623 12.2959 38.7082
RightArm  -8.06552 28.2868 32.3807
RightForeArm  -8.71695 66.8033 29.436
RightHand  -3.0766 8.58745 -25.4694
LeftUpLeg  -3.1936 2.89159 3.12299
LeftLeg  1.19996 1.78202 -2.25105
LeftFoot  5.19295 0.176356 -1.43052
LeftToes  1.46425e-010 1.43544e-010 6.23391e-011
123
root  -38.7459 41.3457 -9.80223 -22.7455 -85.7656 19.6816
RightUpLeg  1.16258 -8.12976 -1.97057
RightLeg  6.31664 -7.64269 4.51724
RightFoot  -2.79501 0.499158 -6.91918
RightToes  2.91037e-010 0 -3.6325e-017
Spine  4.55822 4.10125 8.914
Spine1  11.0086 8.23728 -12.06
HEad  -10.3051 -7.00091 1.34776
LeftShoulder1  9.2898 -14.0772 -46.0859
LeftArm  -11.1297 16.5445 -24.474
LeftForeArm  23.5533 -23.4516 -3.79551
LeftHand  -0.244104 0.0205437 5.32207
RightShoulder  7.03496 12.4147 38.1369
RightArm  -4.03675 30.4158 32.9132
RightForeArm  -20.1519 59.1127 20.8312
RightHand  -3.15553 8.92595 -25.5047
LeftUpLeg  -2.6727 3.00565 3.05958
LeftLeg  1.12275 2.53665 -2.34128
LeftFoot  4.77582 0.13793 -1.17953
LeftToes  1.46425e-010 1.43544e-010 6.23391e-011
124
root  -38.935 41.3645 -9.65038 -27.0715 -86.4127 24.1702
RightUpLeg  1.36518 -7.97058 -2.07109
RightLeg  6.06691 -7.12031 4.29557
RightFoot  -2.89908 0.47328 -6.66506
RightToes  2.91037e-010 0 -3.6325e-017
Spine  4.42601 4.31323 9.10145
Spine1  11.1466 8.56178 -12.3662
HEad  -11.9443 -7.47969 2.20138
LeftShoulder1  9.43993 -14.3499 -46.1155
LeftArm  -10.1708 14.5096 -23.8857
LeftForeArm  25.4172 -24.5664 -3.91616
LeftHand  -0.244104 0.0205437 5.32207
RightShoulder  6.97482 12.515 37.508
RightArm  -0.603879 30.9589 33.0381
RightForeArm  -26.0344 55.0298 18.05
RightHand  -3.06503 8.55175 -25.4378
LeftUpLeg  -2.45663 2.91313 2.84787
LeftLeg  1.16328 3.32912 -2.28919
LeftFoot  4.428 0.113204 -1.01182
LeftToes  1.46425e-010 1.43544e-010 6.23391e-011
125
root  -39.1074 41.3767 -9.50337 -29.9883 -86.7204 27.3566
RightUpLeg  1.40832 -7.87925 -2.20763
RightLeg  5.90429 -6.85675 4.12326
RightFoot  -3.05565 0.441965 -6.37531
RightToes  2.91037e-010 0 -3.6325e-017
Spine  4.46808 4.55512 9.08993
Spine1  11.2326 8.75651 -12.1068
HEad  -14.4778 -8.05307 2.70987
LeftShoulder1  9.66729 -14.5395 -46.7488
LeftArm  -9.978 12.4608 -23.1676
LeftForeArm  27.7077 -25.8377 -4.06801
LeftHand  -0.244104 0.0205437 5.32207
RightShoulder  6.98384 12.6448 37.2222
RightArm  -0.880821 29.2236 32.8501
RightForeArm  -24.2284 56.9706 19.4821
RightHand  -2.82513 7.78539 -24.8278
LeftUpLeg  -2.49766 2.75581 2.57834
LeftLeg  1.30694 3.79475 -2.22325
LeftFoot  4.20989 0.0742152 -0.730477
LeftToes  1.46425e-010 1.43544e-010 6.23391e-011
126
root  -39.2688 41.3848 -9.36577 -29.1801 -86.6563 26.8934
RightUpLeg  1.35812 -7.8669 -2.36768
RightLeg  5.81251 -6.89595 4.04525
RightFoot  -3.2342 0.409658 -6.07909
RightToes  2.91037e-010 0 -3.6325e-017
Spine  4.53978 4.49217 8.74092
Spine1  11.0752 8.50602 -11.5651
HEad  -17.034 -8.03373 2.94199
LeftShoulder1  9.74505 -14.6022 -46.9667
LeftArm  -11.1629 11.3983 -23.0267
LeftForeArm  29.4314 -27.5472 -4.34885
LeftHand  -0.244104 0.0205437 5.32207
RightShoulder  7.12108 12.696 37.9084
RightArm  -3.51685 26.6971 33.0572
RightForeArm  -16.5804 62.2671 23.8349
RightHand  -2.57287 7.09844 -23.8987
LeftUpLeg  -2.70351 2.65461 2.34924
LeftLeg  1.51147 3.85937 -2.22862
LeftFoot  3.92898 0.0290588 -0.394582
LeftToes  1.46425e-010 1.43544e-010 6.23391e-011
